/* XPM */
static char * gpdftext_xpm[] = {
"32 32 413 2",
"  	c None",
". 	c #C3FAAD",
"+ 	c #AFF395",
"@ 	c #B8F1A2",
"# 	c #6FF736",
"$ 	c #33BB00",
"% 	c #52E905",
"& 	c #52EF00",
"* 	c #51F100",
"= 	c #51F000",
"- 	c #4FF300",
"; 	c #4EF000",
"> 	c #4CEA00",
", 	c #4BEE00",
"' 	c #4DF500",
") 	c #47EB00",
"! 	c #40D700",
"~ 	c #43DC00",
"{ 	c #45D70A",
"] 	c #45D30D",
"^ 	c #47EC00",
"/ 	c #F1FFEA",
"( 	c #C8FEB0",
"_ 	c #2DBF00",
": 	c #8FFF4A",
"< 	c #F3FFF0",
"[ 	c #EBFFE7",
"} 	c #F6FFF6",
"| 	c #EFFFEC",
"1 	c #E6FFDE",
"2 	c #E5FFDE",
"3 	c #E1FFD9",
"4 	c #D9FFCC",
"5 	c #D2FFC1",
"6 	c #CBFFB8",
"7 	c #AFFF8F",
"8 	c #B8FF9B",
"9 	c #59F616",
"0 	c #48DE0C",
"a 	c #BEFF9F",
"b 	c #FFCF86",
"c 	c #FFD89A",
"d 	c #ABF48D",
"e 	c #2DB600",
"f 	c #86FF3B",
"g 	c #F1FEED",
"h 	c #EEFFE6",
"i 	c #F5FFF0",
"j 	c #F0FFE9",
"k 	c #F2FFEB",
"l 	c #F3FFEC",
"m 	c #F6FFF0",
"n 	c #F4FFEE",
"o 	c #F7FFF2",
"p 	c #F1FFE9",
"q 	c #60F11F",
"r 	c #66EF27",
"s 	c #EDFCE1",
"t 	c #FFB23F",
"u 	c #FFC07B",
"v 	c #FFBD72",
"w 	c #FFBF5B",
"x 	c #B0F594",
"y 	c #37C900",
"z 	c #3CCF00",
"A 	c #66F427",
"B 	c #6DF933",
"C 	c #73F43F",
"D 	c #72F03F",
"E 	c #73F43E",
"F 	c #71F53B",
"G 	c #71F63A",
"H 	c #72F63D",
"I 	c #78F643",
"J 	c #73F341",
"K 	c #74F63F",
"L 	c #6EF537",
"M 	c #4AED08",
"N 	c #40CF00",
"O 	c #9BFA6D",
"P 	c #FFC769",
"Q 	c #FEC280",
"R 	c #FFC37F",
"S 	c #FFB76A",
"T 	c #FFA428",
"U 	c #A9F48C",
"V 	c #37CB00",
"W 	c #3DCF00",
"X 	c #3AC900",
"Y 	c #3BCD00",
"Z 	c #3FD700",
"` 	c #3ED900",
" .	c #41EC00",
"..	c #3DDA00",
"+.	c #42EB00",
"@.	c #3EDE00",
"#.	c #40E300",
"$.	c #3CD900",
"%.	c #3FE200",
"&.	c #3EDB00",
"*.	c #40DB00",
"=.	c #37C300",
"-.	c #47ED00",
";.	c #F0FEED",
">.	c #FFAC3E",
",.	c #FFBF78",
"'.	c #FFB461",
").	c #FF9700",
"!.	c #FFEFB1",
"~.	c #38CC00",
"{.	c #3DD100",
"].	c #39C200",
"^.	c #42DC04",
"/.	c #86F957",
"(.	c #CAFFB1",
"_.	c #D7FFC5",
":.	c #E3FFD9",
"<.	c #EBFFE5",
"[.	c #EDFFE5",
"}.	c #E5FFDB",
"|.	c #EBFFE3",
"1.	c #E8FFDE",
"2.	c #EAFFE5",
"3.	c #7DF03E",
"4.	c #45EA00",
"5.	c #FFD068",
"6.	c #FDBC79",
"7.	c #FFC482",
"8.	c #FFB360",
"9.	c #FFA120",
"0.	c #FFE6B6",
"a.	c #38CD00",
"b.	c #3BCA00",
"c.	c #3AC700",
"d.	c #3CCD00",
"e.	c #3BD500",
"f.	c #41CE07",
"g.	c #48D216",
"h.	c #98FF51",
"i.	c #BBFFA2",
"j.	c #E5FEDB",
"k.	c #E9FFDE",
"l.	c #E1FFD3",
"m.	c #E7FFDC",
"n.	c #E6FEDE",
"o.	c #7EEB43",
"p.	c #C19D00",
"q.	c #FEBD7F",
"r.	c #FFB25F",
"s.	c #FF9E0B",
"t.	c #FFE5AE",
"u.	c #ABF48A",
"v.	c #3DD200",
"w.	c #3CCE00",
"x.	c #38C000",
"y.	c #3BCB00",
"z.	c #3BC600",
"A.	c #33CA00",
"B.	c #3FD300",
"C.	c #66FA1A",
"D.	c #D2FFBD",
"E.	c #E8FFDB",
"F.	c #ECFFE3",
"G.	c #E4FFDA",
"H.	c #E9FFD9",
"I.	c #FFD12A",
"J.	c #FFC382",
"K.	c #FFC47F",
"L.	c #FFB35F",
"M.	c #FFA11B",
"N.	c #FFEBA9",
"O.	c #ADF486",
"P.	c #3AC500",
"Q.	c #3CD200",
"R.	c #3ACB00",
"S.	c #3AC600",
"T.	c #38C200",
"U.	c #3ED300",
"V.	c #3DC800",
"W.	c #D1FFB3",
"X.	c #E3FFD5",
"Y.	c #E8FEDE",
"Z.	c #EAFFDB",
"`.	c #FFAF3A",
" +	c #FEC181",
".+	c #FFBC74",
"++	c #FF9912",
"@+	c #FFEFBF",
"#+	c #39CE00",
"$+	c #42D005",
"%+	c #7AFF32",
"&+	c #7FFA36",
"*+	c #81FF37",
"=+	c #71E630",
"-+	c #40D201",
";+	c #3BC700",
">+	c #46DB00",
",+	c #D0FFB4",
"'+	c #E6FFDC",
")+	c #F0FEE6",
"!+	c #F9B069",
"~+	c #FBBC79",
"{+	c #FEC482",
"]+	c #FD9E24",
"^+	c #FEDAA7",
"/+	c #36C800",
"(+	c #87F454",
"_+	c #FDFFFA",
":+	c #D9FFB7",
"<+	c #DBFFBB",
"[+	c #FFFFFF",
"}+	c #68F207",
"|+	c #31B000",
"1+	c #42CF00",
"2+	c #DBFFC0",
"3+	c #FBFDF2",
"4+	c #FCA530",
"5+	c #FABD7E",
"6+	c #FFC27C",
"7+	c #FEB15B",
"8+	c #FF940B",
"9+	c #FFDA91",
"0+	c #35C600",
"a+	c #9CF270",
"b+	c #DDF8D8",
"c+	c #3ACD16",
"d+	c #46C921",
"e+	c #F5FFED",
"f+	c #6CF100",
"g+	c #32B300",
"h+	c #3CB800",
"i+	c #E6FFCE",
"j+	c #FEE1BD",
"k+	c #FFD5A6",
"l+	c #FEC481",
"m+	c #FFB15A",
"n+	c #FF9A23",
"o+	c #A7F20B",
"p+	c #E6FFEB",
"q+	c #AAF48C",
"r+	c #38CB00",
"s+	c #38D100",
"t+	c #99F264",
"u+	c #FFFEFF",
"v+	c #6DF104",
"w+	c #2B9B00",
"x+	c #3FB700",
"y+	c #E8F2C7",
"z+	c #FFDBB0",
"A+	c #FFF8EF",
"B+	c #FFC988",
"C+	c #F27A07",
"D+	c #CBA400",
"E+	c #3ED500",
"F+	c #F1FFEB",
"G+	c #ABF48E",
"H+	c #33C000",
"I+	c #9EF175",
"J+	c #ECFCE7",
"K+	c #6DEA3A",
"L+	c #66ED2C",
"M+	c #5BF51D",
"N+	c #36AC00",
"O+	c #2A9100",
"P+	c #3CAF00",
"Q+	c #EBECA7",
"R+	c #E6B77D",
"S+	c #FFCB90",
"T+	c #FFBC73",
"U+	c #FFDE8C",
"V+	c #89DF2C",
"W+	c #31C200",
"X+	c #EFFFE8",
"Y+	c #B1F397",
"Z+	c #2FB400",
"`+	c #ADF08A",
" @	c #DEFDCD",
".@	c #30BC00",
"+@	c #3FD200",
"@@	c #B8F29A",
"#@	c #53D900",
"$@	c #268700",
"%@	c #45A300",
"&@	c #F3FA9A",
"*@	c #E7B627",
"=@	c #FFE2B9",
"-@	c #FDF0C9",
";@	c #F2FEEC",
">@	c #82D316",
",@	c #35BE00",
"'@	c #B0F196",
")@	c #32BD00",
"!@	c #2DAE00",
"~@	c #A4F178",
"{@	c #D0FFBF",
"]@	c #D3FFC4",
"^@	c #57BD00",
"/@	c #237C00",
"(@	c #298700",
"_@	c #D8F1C2",
":@	c #F1FFFC",
"<@	c #F4FFF5",
"[@	c #F2FEF4",
"}@	c #81D108",
"|@	c #30B600",
"1@	c #E6FFDB",
"2@	c #AEEF94",
"3@	c #31B400",
"4@	c #33B100",
"5@	c #2DA600",
"6@	c #92F636",
"7@	c #94EB36",
"8@	c #96EF36",
"9@	c #68BF2A",
"0@	c #248500",
"a@	c #206D00",
"b@	c #277B00",
"c@	c #C4F2A8",
"d@	c #E6FFDA",
"e@	c #ECFFE4",
"f@	c #E3FFD6",
"g@	c #E7FFE5",
"h@	c #84CF07",
"i@	c #2DB200",
"j@	c #E3FFD8",
"k@	c #B6EFA0",
"l@	c #2DAB00",
"m@	c #30A700",
"n@	c #2B9000",
"o@	c #299200",
"p@	c #207900",
"q@	c #279000",
"r@	c #227600",
"s@	c #257C00",
"t@	c #1E6600",
"u@	c #266700",
"v@	c #C7F0AA",
"w@	c #E8FFDD",
"x@	c #EEFFE7",
"y@	c #E6FEE7",
"z@	c #87D001",
"A@	c #30B400",
"B@	c #49CE0F",
"C@	c #217800",
"D@	c #278600",
"E@	c #278500",
"F@	c #288800",
"G@	c #237600",
"H@	c #1F6A00",
"I@	c #216D00",
"J@	c #206B00",
"K@	c #1B4E00",
"L@	c #81F740",
"M@	c #A6FF61",
"N@	c #A3FF5F",
"O@	c #9CFF53",
"P@	c #9BFF5B",
"Q@	c #4C9E00",
"R@	c #31B700",
"S@	c #E4FFDB",
"T@	c #C5FFA2",
"U@	c #64E41E",
"V@	c #2C9000",
"W@	c #1B7300",
"X@	c #1E6700",
"Y@	c #1E6900",
"Z@	c #1D6800",
"`@	c #164B00",
" #	c #154A00",
".#	c #195700",
"+#	c #0E4300",
"@#	c #0C3C00",
"##	c #0E4100",
"$#	c #0F4300",
"%#	c #0F4000",
"&#	c #124400",
"*#	c #39C600",
"=#	c #E1FFD2",
"-#	c #B8FA99",
";#	c #9ADE4F",
">#	c #177700",
",#	c #0B3800",
"'#	c #175000",
")#	c #195800",
"!#	c #124100",
"~#	c #195100",
"{#	c #93E466",
"]#	c #BAF595",
"^#	c #BBF696",
"/#	c #BDF797",
"(#	c #BAF694",
"_#	c #B4F493",
":#	c #BCFD9D",
"<#	c #E6FFE2",
"[#	c #DCFFB5",
"}#	c #82FD37",
"|#	c #2E8212",
"1#	c #0C3F00",
"2#	c #114000",
"3#	c #174600",
"4#	c #C5E5AB",
"5#	c #F0FFEA",
"6#	c #EAFFE1",
"7#	c #E7FFDB",
"8#	c #DAFFCA",
"9#	c #A6E391",
"0#	c #186000",
"a#	c #133F00",
"b#	c #C3EAA8",
"c#	c #E4FFD7",
"d#	c #FEFFF8",
"e#	c #77FF2C",
"f#	c #C9F2AB",
"                                                                ",
"                                                                ",
"                                                                ",
"                                                                ",
"            .     + @                                           ",
"          # $ % & * = - ; > , ' ) ! ~ { ] ^ /                   ",
"        ( _ : < [ } | 1 2 3 4 5 6 7 8 9 0 a         b c         ",
"        d e f g h i j k / l m n o / p q r       s t u v w       ",
"        x y z A B C D E F G H I J K L M N O     P Q R S T       ",
"        U V W X Y Z `  ...+.@.#.$.%.&.*.=.-.;.>.u ,.'.).!.      ",
"        U ~.{.].^./.(._.:.<.[.}.}.|.1.2.3.4.5.6.7.8.9.0.        ",
"        U a.b.c.d.e.f.g.h.i.j.k.l.m.l.n.o.p.q.u r.s.t.          ",
"        u.a.b.v.w.x.y.z.A.B.C.D.E.F.G.H.I.J.K.L.M.N.            ",
"        O.~.P.d.Q.R.S.T.v.U.V.W.X.Y.Z.`. +.+'.++@+              ",
"        U #+w.$+%+&+*+=+-+;+>+,+'+)+!+~+{+'.]+^+                ",
"        U a./+(+_+:+<+[+}+|+1+2+3+4+5+6+7+8+9+                  ",
"        U a.0+a+b+c+d+e+f+g+h+i+j+k+l+m+n+o+p+                  ",
"        q+r+s+t+[+[+[+u+v+w+x+y+z+A+B+C+D+E+F+                  ",
"        G+a.H+I+J+K+L+M+N+O+P+Q+R+S+T+U+V+W+X+                  ",
"        Y+r+Z+`+ @.@+@@@#@$@%@&@*@=@-@;@>@,@1.                  ",
"        '@)@!@~@[+{@]@[+^@/@(@_@:@<@| [@}@|@1@                  ",
"        2@3@4@5@6@7@8@9@0@a@b@c@d@e@f@g@h@i@j@                  ",
"        k@l@m@n@o@p@q@r@s@t@u@v@w@x@'+y@z@A@:.                  ",
"          B@C@D@E@F@G@H@I@J@K@L@M@N@O@P@Q@R@S@                  ",
"          T@U@V@W@X@Y@Z@`@ #.#+#@###$#%#&#*#=#                  ",
"              -#;#>#,#'#)#!#~#{#]#^#/#(#_#:#                    ",
"                <#[#}#|#1#2#3#4#j n 5#6#7#8#                    ",
"                        9#0#a#b#c#                              ",
"                          d#e#f#                                ",
"                                                                ",
"                                                                ",
"                                                                "};
